<svg width="30.6" height="30.199999999999996" xmlns="http://www.w3.org/2000/svg">

 <g>
  <title>background</title>
  <rect fill="none" id="canvas_background" height="32.2" width="32.6" y="-1" x="-1"/>
 </g>
 <g>
  <title>Layer 1</title>
  <circle stroke-miterlimit="10" stroke-linejoin="round" stroke-linecap="round" stroke-width="1.25" stroke="#ffffff" fill="none" id="svg_2" r="3.3" cy="4.2" cx="5.1" class="st0"/>
  <path stroke-miterlimit="10" stroke-linejoin="round" stroke-linecap="round" stroke-width="1.25" stroke="#ffffff" fill="none" id="svg_3" d="m24.7,29.3c-0.7,0 -1.3,-0.6 -1.3,-1.3l0,-7.7c0,-4.3 -1.3,-5.7 -3.2,-5.7s-3.9,1.2 -3.9,5l-0.3,8.3c0,0.7 -0.6,1.3 -1.3,1.3l-2.8,0c-0.7,0 -1.3,-0.6 -1.3,-1.3l0,-16.5c0,-0.7 0.6,-1.3 1.3,-1.3l2.8,0c0.7,0 1.3,0.6 1.3,1.3l0,2.2c1.3,-4 3.7,-4.3 6.1,-4.3s6.8,1.3 6.8,6.5l0,12.1" class="st0"/>
  <path stroke-miterlimit="10" stroke-linejoin="round" stroke-linecap="round" stroke-width="1.25" stroke="#ffffff" fill="none" id="svg_4" d="m6.5,29.3l-2.8,0c-0.7,0 -1.3,-0.6 -1.3,-1.3l0,-16.6c0,-0.7 0.6,-1.3 1.3,-1.3l2.8,0c0.7,0 1.3,0.6 1.3,1.3l0,16.5c0,0.8 -0.6,1.4 -1.3,1.4z" class="st0"/>
 </g>
</svg>