<svg width="32" height="32" xmlns="http://www.w3.org/2000/svg">

 <title/>
 <g>
  <title>background</title>
  <rect fill="none" id="canvas_background" height="402" width="582" y="-1" x="-1"/>
 </g>
 <g>
  <title>Layer 1</title>
  <path fill="#ffffff" id="svg_1" d="m24.19,27.11a1,1 0 0 1 -0.58,-0.18l-9.61,-6.74a1,1 0 0 1 -0.42,-0.73a1,1 0 0 1 0.29,-0.8l2.62,-2.66l-4.49,2.81l2,4.59l0.88,-0.88a1,1 0 0 1 1.42,1.41l-2,1.92a1,1 0 0 1 -1.63,-0.31l-2.89,-6.74a1,1 0 0 1 0.4,-1.24l12.52,-7.71a1,1 0 0 1 1.23,1.56l-7.82,7.82l7.44,5.22l4,-17l-21.77,8.1l2.41,1a1,1 0 1 1 -0.75,1.85l-4.81,-1.95a1,1 0 0 1 0,-1.87l26.02,-9.58a1,1 0 0 1 1,0.19a1,1 0 0 1 0.31,1l-4.8,20.15a1,1 0 0 1 -0.62,0.71a1.07,1.07 0 0 1 -0.35,0.06z" class="cls-1"/>
 </g>
</svg>